<?xml version="1.0" encoding="UTF-8" standalone="no"?>
<!DOCTYPE svg PUBLIC "-//W3C//DTD SVG 1.1//EN" "http://www.w3.org/Graphics/SVG/1.1/DTD/svg11.dtd">
<svg width="100%" height="100%" viewBox="0 0 100 100" version="1.1" xmlns="http://www.w3.org/2000/svg" xmlns:xlink="http://www.w3.org/1999/xlink" xml:space="preserve" xmlns:serif="http://www.serif.com/" style="fill-rule:evenodd;clip-rule:evenodd;stroke-linejoin:round;stroke-miterlimit:2;">
    <g id="Artboard1" transform="matrix(1.60364,0,0,1.41821,-4.85282,1.19614)">
        <rect x="3.026" y="-0.843" width="62.358" height="70.511" style="fill:none;"/>
        <g transform="matrix(5.67984e-17,1.04887,-0.927588,6.42246e-17,63.5975,0.716205)">
            <path d="M12,37C12.553,37 13,36.553 13,36L13,1C13,0.447 12.553,0 12,0C11.447,0 11,0.447 11,1L11,36C11,36.553 11.447,37 12,37Z" style="fill:rgb(141,198,66);fill-rule:nonzero;"/>
        </g>
        <g transform="matrix(5.67984e-17,1.04887,-0.927588,6.42246e-17,63.5975,0.716205)">
            <path d="M52,27C51.447,27 51,27.447 51,28L51,63C51,63.553 51.447,64 52,64C52.553,64 53,63.553 53,63L53,28C53,27.447 52.553,27 52,27Z" style="fill:rgb(141,198,66);fill-rule:nonzero;"/>
        </g>
        <g transform="matrix(5.67984e-17,1.04887,-0.927588,6.42246e-17,63.5975,0.716205)">
            <path d="M52,0C51.447,0 51,0.447 51,1L51,3L48,3L48,1C48,0.447 47.553,0 47,0C46.447,0 46,0.447 46,1L46,3L43,3L43,1C43,0.447 42.553,0 42,0C41.447,0 41,0.447 41,1L41,3L38,3L38,1C38,0.447 37.553,0 37,0C36.447,0 36,0.447 36,1L36,3L33,3L33,1C33,0.447 32.553,0 32,0C31.447,0 31,0.447 31,1L31,3L28,3L28,1C28,0.447 27.553,0 27,0C26.447,0 26,0.447 26,1L26,3L23,3L23,1C23,0.447 22.553,0 22,0C21.447,0 21,0.447 21,1L21,3L18,3L18,1C18,0.447 17.553,0 17,0C16.447,0 16,0.447 16,1L16,3L15,3C14.447,3 14,3.447 14,4C14,4.553 14.447,5 15,5L51,5L51,20C51,20.553 51.447,21 52,21C52.553,21 53,20.553 53,20L53,1C53,0.447 52.553,0 52,0Z" style="fill:rgb(141,198,66);fill-rule:nonzero;"/>
        </g>
        <g transform="matrix(5.67984e-17,1.04887,-0.927588,6.42246e-17,63.5975,0.716205)">
            <path d="M16,30C16,30.553 16.447,31 17,31C17.553,31 18,30.553 18,30L18,14.917C20.509,14.494 22.494,12.509 22.917,10L41.083,10C41.561,12.834 44.032,15 47,15C47.553,15 48,14.553 48,14C48,13.447 47.553,13 47,13C44.794,13 43,11.206 43,9C43,8.447 42.553,8 42,8L22,8C21.447,8 21,8.447 21,9C21,11.206 19.206,13 17,13C16.447,13 16,13.447 16,14L16,30Z" style="fill:rgb(141,198,66);fill-rule:nonzero;"/>
        </g>
        <g transform="matrix(5.67984e-17,1.04887,-0.927588,6.42246e-17,63.5975,0.716205)">
            <path d="M17,51C19.206,51 21,52.794 21,55C21,55.553 21.447,56 22,56L42,56C42.553,56 43,55.553 43,55C43,52.794 44.794,51 47,51C47.553,51 48,50.553 48,50L48,34C48,33.447 47.553,33 47,33C46.447,33 46,33.447 46,34L46,49.083C43.491,49.506 41.506,51.491 41.083,54L22.917,54C22.439,51.166 19.968,49 17,49C16.447,49 16,49.447 16,50C16,50.553 16.447,51 17,51Z" style="fill:rgb(141,198,66);fill-rule:nonzero;"/>
        </g>
        <g transform="matrix(5.67984e-17,1.04887,-0.927588,6.42246e-17,63.5975,0.716205)">
            <path d="M49,59L13,59L13,44C13,43.447 12.553,43 12,43C11.447,43 11,43.447 11,44L11,63C11,63.553 11.447,64 12,64C12.553,64 13,63.553 13,63L13,61L16,61L16,63C16,63.553 16.447,64 17,64C17.553,64 18,63.553 18,63L18,61L21,61L21,63C21,63.553 21.447,64 22,64C22.553,64 23,63.553 23,63L23,61L26,61L26,63C26,63.553 26.447,64 27,64C27.553,64 28,63.553 28,63L28,61L31,61L31,63C31,63.553 31.447,64 32,64C32.553,64 33,63.553 33,63L33,61L36,61L36,63C36,63.553 36.447,64 37,64C37.553,64 38,63.553 38,63L38,61L41,61L41,63C41,63.553 41.447,64 42,64C42.553,64 43,63.553 43,63L43,61L46,61L46,63C46,63.553 46.447,64 47,64C47.553,64 48,63.553 48,63L48,61L49,61C49.553,61 50,60.553 50,60C50,59.447 49.553,59 49,59Z" style="fill:rgb(141,198,66);fill-rule:nonzero;"/>
        </g>
        <g transform="matrix(5.67984e-17,1.04887,-0.927588,6.42246e-17,63.5975,0.716205)">
            <path d="M17.293,10.707C17.488,10.902 17.744,11 18,11C18.256,11 18.512,10.902 18.707,10.707C19.098,10.316 19.098,9.684 18.707,9.293L17.707,8.293C17.316,7.902 16.684,7.902 16.293,8.293C15.902,8.684 15.902,9.316 16.293,9.707L17.293,10.707Z" style="fill:rgb(141,198,66);fill-rule:nonzero;"/>
        </g>
        <g transform="matrix(5.67984e-17,1.04887,-0.927588,6.42246e-17,63.5975,0.716205)">
            <path d="M46.707,10.707L47.707,9.707C48.098,9.316 48.098,8.684 47.707,8.293C47.316,7.902 46.684,7.902 46.293,8.293L45.293,9.293C44.902,9.684 44.902,10.316 45.293,10.707C45.488,10.902 45.744,11 46,11C46.256,11 46.512,10.902 46.707,10.707Z" style="fill:rgb(141,198,66);fill-rule:nonzero;"/>
        </g>
        <g transform="matrix(5.67984e-17,1.04887,-0.927588,6.42246e-17,63.5975,0.716205)">
            <path d="M46.707,53.293C46.316,52.902 45.684,52.902 45.293,53.293C44.902,53.684 44.902,54.316 45.293,54.707L46.293,55.707C46.488,55.902 46.744,56 47,56C47.256,56 47.512,55.902 47.707,55.707C48.098,55.316 48.098,54.684 47.707,54.293L46.707,53.293Z" style="fill:rgb(141,198,66);fill-rule:nonzero;"/>
        </g>
        <g transform="matrix(5.67984e-17,1.04887,-0.927588,6.42246e-17,63.5975,0.716205)">
            <path d="M16.293,55.707C16.488,55.902 16.744,56 17,56C17.256,56 17.512,55.902 17.707,55.707L18.707,54.707C19.098,54.316 19.098,53.684 18.707,53.293C18.316,52.902 17.684,52.902 17.293,53.293L16.293,54.293C15.902,54.684 15.902,55.316 16.293,55.707Z" style="fill:rgb(141,198,66);fill-rule:nonzero;"/>
        </g>
        <g transform="matrix(5.67984e-17,1.04887,-0.927588,6.42246e-17,63.5975,0.716205)">
            <path d="M17,48C16.447,48 16,47.553 16,47C16,43.691 13.309,41 10,41C9.447,41 9,40.553 9,40C9,39.447 9.447,39 10,39C13.309,39 16,36.309 16,33C16,32.447 16.447,32 17,32C17.553,32 18,32.447 18,33C18,36.309 20.691,39 24,39C24.553,39 25,39.447 25,40C25,40.553 24.553,41 24,41C20.691,41 18,43.691 18,47C18,47.553 17.553,48 17,48ZM13.87,40C15.183,40.729 16.271,41.816 17,43.13C17.729,41.817 18.816,40.729 20.13,40C18.817,39.271 17.729,38.184 17,36.87C16.271,38.183 15.184,39.271 13.87,40Z" style="fill:rgb(141,198,66);fill-rule:nonzero;"/>
        </g>
        <g transform="matrix(5.67984e-17,1.04887,-0.927588,6.42246e-17,63.5975,0.716205)">
            <path d="M32,37C31.447,37 31,36.553 31,36C31,34.346 29.654,33 28,33C27.447,33 27,32.553 27,32C27,31.447 27.447,31 28,31C29.654,31 31,29.654 31,28C31,27.447 31.447,27 32,27C32.553,27 33,27.447 33,28C33,29.654 34.346,31 36,31C36.553,31 37,31.447 37,32C37,32.553 36.553,33 36,33C34.346,33 33,34.346 33,36C33,36.553 32.553,37 32,37ZM30.997,32C31.377,32.285 31.715,32.623 32,33.003C32.285,32.623 32.623,32.285 33.003,32C32.623,31.715 32.285,31.377 32,30.997C31.715,31.377 31.377,31.715 30.997,32Z" style="fill:rgb(141,198,66);fill-rule:nonzero;"/>
        </g>
        <g transform="matrix(5.67984e-17,1.04887,-0.927588,6.42246e-17,63.5975,0.716205)">
            <path d="M47,32C46.447,32 46,31.553 46,31C46,27.691 43.309,25 40,25C39.447,25 39,24.553 39,24C39,23.447 39.447,23 40,23C43.309,23 46,20.309 46,17C46,16.447 46.447,16 47,16C47.553,16 48,16.447 48,17C48,20.309 50.691,23 54,23C54.553,23 55,23.447 55,24C55,24.553 54.553,25 54,25C50.691,25 48,27.691 48,31C48,31.553 47.553,32 47,32ZM43.87,24C45.183,24.729 46.271,25.816 47,27.13C47.729,25.817 48.816,24.729 50.13,24C48.817,23.271 47.729,22.184 47,20.87C46.271,22.183 45.184,23.271 43.87,24Z" style="fill:rgb(141,198,66);fill-rule:nonzero;"/>
        </g>
    </g>
</svg>
