<?xml version="1.0" encoding="UTF-8" standalone="no"?>
<!DOCTYPE svg PUBLIC "-//W3C//DTD SVG 1.1//EN" "http://www.w3.org/Graphics/SVG/1.1/DTD/svg11.dtd">
<svg width="100%" height="100%" viewBox="0 0 100 100" version="1.1" xmlns="http://www.w3.org/2000/svg" xmlns:xlink="http://www.w3.org/1999/xlink" xml:space="preserve" xmlns:serif="http://www.serif.com/" style="fill-rule:evenodd;clip-rule:evenodd;stroke-linejoin:round;stroke-miterlimit:2;">
    <g id="Artboard1" transform="matrix(1.21149,0,0,1.08434,-17.0078,-16.7703)">
        <rect x="14.039" y="15.466" width="82.543" height="92.222" style="fill:none;"/>
        <g transform="matrix(0.825428,0,0,0.922658,6.60987,10.8497)">
            <g transform="matrix(1.28482,0,0,1.28482,-4.90228,-9.10966)">
                <path d="M83.844,40.324L58.668,22.043C56.152,20.211 53.121,19.223 50.012,19.223C46.898,19.223 43.867,20.211 41.356,22.043L32.438,28.523L32.438,24.031L32.938,24.031C34.664,24.031 36.063,22.633 36.063,20.906L36.063,14.719C36.063,12.992 34.664,11.594 32.938,11.594L19.168,11.594C17.441,11.594 16.043,12.992 16.043,14.719L16.043,20.906C16.043,22.633 17.441,24.031 19.168,24.031L19.668,24.031L19.668,37.793L16.117,40.375L16.113,40.375C14.035,41.7 13.168,44.297 14.035,46.606C14.906,48.914 17.273,50.293 19.707,49.918L19.707,85.336L19.707,85.332C19.707,87.059 21.109,88.457 22.832,88.457L77.187,88.457C78.913,88.457 80.312,87.059 80.312,85.332L80.312,49.914L80.312,49.918C80.507,49.946 80.706,49.961 80.905,49.969C83.226,49.977 85.277,48.461 85.952,46.242C86.632,44.024 85.773,41.621 83.843,40.332L83.844,40.324ZM18.125,20.906L18.125,14.718C18.125,14.144 18.59,13.676 19.168,13.676L32.938,13.676C33.215,13.676 33.481,13.785 33.676,13.98C33.872,14.176 33.981,14.441 33.981,14.718L33.981,20.906C33.981,21.183 33.872,21.449 33.676,21.644C33.481,21.84 33.215,21.949 32.938,21.949L19.168,21.949C18.59,21.949 18.125,21.48 18.125,20.906L18.125,20.906ZM21.75,24.031L30.356,24.031L30.356,30.031L21.75,36.281L21.75,24.031ZM78.23,85.281C78.23,85.558 78.121,85.824 77.925,86.019C77.73,86.215 77.464,86.324 77.187,86.324L22.832,86.324C22.258,86.324 21.793,85.855 21.793,85.281L21.793,49.207L22.199,48.945L47.531,30.55C49.004,29.46 51.016,29.46 52.488,30.55L77.824,48.956L78.23,49.206L78.23,85.281ZM83.687,46.25C83.132,47.27 82.066,47.91 80.906,47.918C80.238,47.914 79.589,47.699 79.05,47.301L53.718,28.863C51.515,27.246 48.515,27.246 46.312,28.863L20.968,47.261C20.199,47.827 19.214,48.011 18.292,47.761C17.363,47.511 16.593,46.851 16.206,45.968C15.613,44.562 16.085,42.929 17.343,42.062L42.593,23.73C47.023,20.499 53.031,20.499 57.456,23.73L82.612,42.011C83.975,42.96 84.432,44.765 83.686,46.249L83.687,46.25Z" style="fill:rgb(141,198,66);fill-rule:nonzero;"/>
            </g>
            <g transform="matrix(1.28482,0,0,1.28482,-4.90228,-9.10966)">
                <path d="M60.469,62.105C59.875,61.503 59.075,61.152 58.231,61.125C57.383,61.085 56.555,61.406 55.957,62.011L55.227,62.742L53.77,61.285L58.594,56.461L58.594,56.457C58.657,56.39 58.754,56.363 58.844,56.386C61.309,56.937 63.891,56.359 65.883,54.804C67.875,53.254 69.071,50.89 69.137,48.363C69.157,47.488 68.641,46.683 67.832,46.34C67.024,45.996 66.086,46.179 65.469,46.8L62.832,49.343L59.481,45.886L62.024,43.355L62.02,43.355C62.657,42.734 62.848,41.785 62.5,40.969C62.172,40.164 61.379,39.652 60.512,39.676C57.969,39.722 55.586,40.914 54.028,42.918C52.465,44.926 51.895,47.527 52.469,50C52.489,50.086 52.461,50.176 52.395,50.238L47.539,55.094L40.957,48.5C41,48.246 41,47.984 40.957,47.73C40.879,47.011 40.469,46.375 39.856,46L36.594,43.98C35.668,43.394 34.457,43.531 33.688,44.312L31.77,46.218C30.996,46.996 30.86,48.203 31.438,49.136L33.457,52.398L33.457,52.394C33.836,53.011 34.481,53.418 35.199,53.5L35.469,53.5C35.797,53.5 36.121,53.429 36.418,53.293L42.856,59.718L37,65.625C36.938,65.683 36.856,65.711 36.77,65.699C33.832,65.047 30.766,65.992 28.707,68.187C27.324,69.695 26.535,71.652 26.488,73.699C26.461,74.57 26.977,75.367 27.781,75.699C28.613,76.054 29.578,75.859 30.207,75.207L32.821,72.676L36.184,76.113L33.653,78.656L33.657,78.656C33.032,79.277 32.848,80.219 33.2,81.031C33.528,81.801 34.289,82.297 35.125,82.293L35.176,82.293C37.699,82.222 40.059,81.027 41.61,79.035C43.16,77.043 43.739,74.465 43.188,72C43.164,71.91 43.192,71.812 43.262,71.75L49.137,65.875L50.586,67.332L49.867,68.062L49.864,68.062C49.274,68.679 48.953,69.511 48.981,70.367C49.004,71.222 49.371,72.031 50,72.613L60.324,82.945L60.324,82.949C60.922,83.547 61.727,83.894 62.574,83.925L62.68,83.925L62.676,83.925C63.488,83.929 64.27,83.613 64.844,83.043L70.938,76.949C72.152,75.668 72.106,73.648 70.832,72.425L60.469,62.105ZM53.864,51.687C54.434,51.128 54.676,50.312 54.5,49.531C54.071,47.675 54.5,45.722 55.668,44.214C56.84,42.71 58.625,41.812 60.532,41.769L60.532,41.882L57.981,44.414L57.981,44.417C57.149,45.261 57.149,46.613 57.981,47.457L61.336,50.82L61.332,50.824C61.739,51.226 62.285,51.453 62.856,51.457C63.426,51.457 63.973,51.23 64.375,50.824L66.918,48.293L67.043,48.293C66.992,49.925 66.317,51.476 65.157,52.625C63.629,54.175 61.403,54.82 59.282,54.324C58.496,54.148 57.676,54.39 57.106,54.957L52.282,59.781L49,56.5L53.864,51.687ZM35.489,51.394C35.406,51.386 35.328,51.343 35.281,51.269L33.262,48.007L33.262,48.011C33.184,47.91 33.184,47.769 33.262,47.667L35.168,45.749C35.219,45.699 35.293,45.671 35.363,45.675C35.41,45.66 35.465,45.66 35.512,45.675L38.774,47.695L38.77,47.699C38.844,47.734 38.895,47.812 38.895,47.894C38.914,47.98 38.887,48.066 38.824,48.124L35.813,51.136L35.668,51.273L35.668,51.269C35.629,51.335 35.563,51.374 35.488,51.386L35.489,51.394ZM41.739,70.332C41.172,70.898 40.934,71.715 41.106,72.5C41.504,74.34 41.067,76.266 39.91,77.754C38.754,79.242 36.996,80.141 35.113,80.207L35.113,81.25L35.051,80.094L37.594,77.551C38.43,76.711 38.43,75.352 37.594,74.512L34.231,71.156C33.832,70.75 33.285,70.523 32.719,70.531C32.149,70.523 31.598,70.75 31.199,71.156L28.68,73.699L29.418,74.438L28.563,73.676C28.586,72.129 29.184,70.645 30.239,69.512C31.805,67.875 34.117,67.187 36.324,67.707C37.102,67.875 37.914,67.633 38.481,67.074L44.375,61.18L47.656,64.461L41.739,70.332ZM38.063,51.906L39.762,50.207L53.762,64.207L52.082,65.906L38.063,51.906ZM69.418,75.468L63.324,81.562C63.125,81.745 62.863,81.847 62.593,81.843C62.277,81.827 61.98,81.695 61.761,81.468L51.425,71.144C50.972,70.734 50.929,70.035 51.332,69.574L57.425,63.48C57.617,63.3 57.867,63.203 58.125,63.199C58.445,63.203 58.746,63.332 58.968,63.562L69.323,73.957C69.749,74.359 69.788,75.02 69.417,75.469L69.418,75.468Z" style="fill:rgb(141,198,66);fill-rule:nonzero;"/>
            </g>
        </g>
    </g>
</svg>
