<?xml version="1.0" encoding="UTF-8" standalone="no"?>
<!DOCTYPE svg PUBLIC "-//W3C//DTD SVG 1.1//EN" "http://www.w3.org/Graphics/SVG/1.1/DTD/svg11.dtd">
<svg width="100%" height="100%" viewBox="0 0 100 100" version="1.1" xmlns="http://www.w3.org/2000/svg" xmlns:xlink="http://www.w3.org/1999/xlink" xml:space="preserve" xmlns:serif="http://www.serif.com/" style="fill-rule:evenodd;clip-rule:evenodd;stroke-linejoin:round;stroke-miterlimit:2;">
    <g id="Artboard1" transform="matrix(1.05164,0,0,1.02906,-10.0171,-13.3613)">
        <rect x="9.525" y="12.984" width="95.089" height="97.176" style="fill:none;"/>
        <g transform="matrix(1.00934,0,0,1.03149,6.48674,8.05212)">
            <path d="M50.309,25.461L46.368,23.77L47.047,22.191L47.051,22.191C48.379,19.109 50.539,16.461 53.289,14.539C56.176,12.563 59.516,11.344 63,11C68.231,10.469 74.922,11 78.32,15.59C83.59,22.68 76.852,34.262 64.941,34.262C63.414,34.215 61.906,34.559 60.551,35.262C56.961,37.262 56.199,42.172 56.199,45.903L56.199,45.899C56.195,49.336 56.551,52.766 57.262,56.129L53.262,57.539C52.383,53.723 51.934,49.816 51.922,45.898C51.922,40.437 53.344,34.367 58.48,31.519C60.469,30.461 62.695,29.929 64.949,29.98C73.398,29.98 77.949,22.3 74.891,18.152C72.531,14.953 66.969,14.914 63.442,15.273L63.442,15.269C60.699,15.554 58.078,16.531 55.821,18.109C53.707,19.547 52.035,21.543 51,23.879L50.309,25.461ZM89.891,81.219C89.895,84.348 88.012,87.172 85.122,88.371C82.235,89.571 78.907,88.906 76.696,86.696C74.481,84.485 73.821,81.156 75.02,78.266C76.219,75.379 79.043,73.496 82.172,73.5C86.434,73.5 89.891,76.957 89.891,81.219ZM85.02,81.219C85.02,80.067 84.325,79.028 83.262,78.586C82.196,78.145 80.969,78.391 80.157,79.203C79.34,80.02 79.098,81.246 79.536,82.313C79.977,83.375 81.016,84.071 82.172,84.071C83.735,84.055 84.996,82.785 85,81.219L85.02,81.219ZM3.129,87.891C3.027,88.184 3.066,88.508 3.234,88.77C3.406,89.032 3.687,89.196 4,89.219L31.59,89.219C32.996,89.215 34.133,88.075 34.141,86.672L34.141,84.731L7.719,84.731C5.703,84.797 3.91,86.032 3.129,87.891L3.129,87.891ZM31.59,80.301L15.719,80.301C14.219,80.301 12.481,81.43 11.16,82.789L34.16,82.789C34.121,81.399 32.981,80.293 31.59,80.301ZM92.25,73.379C91.332,73.383 90.441,73.055 89.75,72.45C86.93,70.016 83.113,69.082 79.492,69.942C75.867,70.801 72.875,73.348 71.449,76.789C70.972,77.954 69.839,78.715 68.578,78.711L50.578,78.711C51.578,81.051 54.078,82.641 58.269,82.641L72.609,82.641C72.543,82.168 72.508,81.696 72.512,81.219C72.512,75.887 76.836,71.559 82.172,71.559C87.504,71.559 91.828,75.887 91.828,81.219C91.832,81.657 91.801,82.09 91.738,82.52C94.918,81.961 96.308,79.52 96.738,76.461C96.887,75.442 96.945,74.411 96.91,73.379L92.25,73.379ZM68.578,76.77L50.109,76.77C50.042,76.055 50.07,75.336 50.191,74.629C53.589,74.801 70.511,74.629 82.703,55.277C88.953,55.539 94.113,58.347 95.762,65.277L95.762,65.281C96.262,67.301 96.617,69.355 96.821,71.43L92.25,71.43C91.793,71.453 91.348,71.297 91,71C87.711,68.152 83.258,67.062 79.023,68.062C74.793,69.066 71.301,72.043 69.64,76.058C69.469,76.492 69.047,76.773 68.578,76.769L68.578,76.77ZM86.308,64.911C86.73,65.219 87.316,65.157 87.659,64.762L89.999,61.84C90.249,61.657 90.398,61.368 90.402,61.055C90.409,60.747 90.269,60.45 90.027,60.258C89.784,60.063 89.468,59.993 89.167,60.067C88.866,60.141 88.616,60.348 88.488,60.63L86.159,63.551C85.843,63.973 85.909,64.567 86.308,64.911L86.308,64.911ZM80.898,64.911C81.32,65.219 81.905,65.157 82.249,64.762L84.589,61.84C84.906,61.419 84.839,60.825 84.441,60.481C84.019,60.165 83.421,60.231 83.077,60.63L80.749,63.551C80.433,63.973 80.499,64.567 80.898,64.911ZM80.386,55.29C71.124,55.758 60.214,61.04 54.726,66.528L54.73,66.532C52.953,68.27 51.585,70.387 50.73,72.719C54.449,72.828 69.21,72.121 80.39,55.289L80.386,55.29ZM60.128,60.001L59.827,59.161C59.671,58.692 59.335,58.305 58.89,58.087C58.448,57.872 57.937,57.84 57.468,58.001L54.257,59.13L54.261,59.13C53.796,59.294 53.417,59.633 53.206,60.075C52.995,60.52 52.968,61.028 53.128,61.489L54.128,64.387L54.128,64.391C55.98,62.735 57.991,61.262 60.128,60.001L60.128,60.001ZM28.999,77.552C29.151,77.204 29.159,76.813 29.022,76.462C28.882,76.11 28.608,75.829 28.261,75.681L24.999,74.282C24.651,74.13 24.261,74.126 23.909,74.263C23.562,74.403 23.28,74.673 23.128,75.02L21.687,78.36L28.687,78.36L28.999,77.552ZM49.21,27.079L45.94,25.668L45.94,25.672C45.214,25.372 44.386,25.704 44.069,26.422L40.319,35.122C40.167,35.469 40.159,35.864 40.296,36.215C40.437,36.567 40.71,36.852 41.058,37L44.327,38.399C44.675,38.551 45.065,38.559 45.417,38.418C45.769,38.278 46.05,38.008 46.198,37.661L49.999,29C50.171,28.645 50.179,28.231 50.03,27.864C49.878,27.5 49.581,27.215 49.21,27.079L49.21,27.079ZM25.39,72.372L29.331,74.071L43.897,40.301L39.999,38.609L25.39,72.372Z" style="fill:rgb(141,198,66);"/>
        </g>
    </g>
</svg>
